<svg width="24" height="35" viewBox="0 0 24 35" fill="none" xmlns="http://www.w3.org/2000/svg">
<g id="Iconly/Bold/Chart">
<g id="Chart">
<path id="Chart_2" fill-rule="evenodd" clip-rule="evenodd" d="M7.3304 0H16.6694C20.0704 0 21.9904 2.1243 22.0004 5.86962V16.1552C22.0004 19.8994 20.0704 22.0248 16.6694 22.0248H7.3304C3.9294 22.0248 2.0004 19.8994 2.0004 16.1552V5.86962C2.0004 2.1243 3.9294 0 7.3304 0ZM12.0494 17.4657C12.4804 17.4657 12.8394 17.1133 12.8794 16.6398V5.41811C12.9194 5.07672 12.7704 4.73424 12.5004 4.54813C12.2194 4.36092 11.8794 4.36092 11.6104 4.54813C11.3394 4.73424 11.1904 5.07672 11.2194 5.41811V16.6398C11.2704 17.1133 11.6294 17.4657 12.0494 17.4657ZM16.6504 17.4657C17.0704 17.4657 17.4294 17.1133 17.4804 16.6398V13.0277C17.5094 12.6742 17.3604 12.3449 17.0894 12.1577C16.8204 11.9705 16.4804 11.9705 16.2004 12.1577C15.9294 12.3449 15.7804 12.6742 15.8204 13.0277V16.6398C15.8604 17.1133 16.2194 17.4657 16.6504 17.4657ZM8.21938 16.6398C8.17938 17.1133 7.82038 17.4657 7.38938 17.4657C6.95938 17.4657 6.59938 17.1133 6.56038 16.6398V9.03018C6.53038 8.6877 6.67938 8.34741 6.95038 8.1602C7.21938 7.97299 7.56038 7.97299 7.83038 8.1602C8.09938 8.34741 8.25038 8.6877 8.21938 9.03018V16.6398Z" fill="#605BFF"/>
</g>
</g>
</svg>
